<svg width="500" height="500" viewBox="0 0 500 500" fill="none" xmlns="http://www.w3.org/2000/svg">
<path d="M399.941 329.83C399.941 329.83 454.481 266.61 440.471 185.76C426.461 104.91 354.201 62.58 305.731 67.37C257.261 72.16 209.001 119.67 161.641 125.54C114.281 131.41 42.8906 173.2 57.3206 252.71C71.7506 332.22 115.601 340 186.581 342.92C257.561 345.84 358.001 382.25 399.941 329.83Z" fill="#263238"/>
<path opacity="0.7" d="M399.941 329.83C399.941 329.83 454.481 266.61 440.471 185.76C426.461 104.91 354.201 62.58 305.731 67.37C257.261 72.16 209.001 119.67 161.641 125.54C114.281 131.41 42.8906 173.2 57.3206 252.71C71.7506 332.22 115.601 340 186.581 342.92C257.561 345.84 358.001 382.25 399.941 329.83Z" fill="white"/>
<path d="M65 259H444" stroke="#263238" stroke-linecap="round" stroke-linejoin="round"/>
<path d="M112.18 294.41C129.964 294.41 144.38 289.06 144.38 282.46C144.38 275.86 129.964 270.51 112.18 270.51C94.3969 270.51 79.9805 275.86 79.9805 282.46C79.9805 289.06 94.3969 294.41 112.18 294.41Z" fill="#263238"/>
<path d="M93.3789 244.81L97.8689 281.25C97.8689 287.09 108.769 291.83 122.219 291.83C135.669 291.83 146.569 287.09 146.569 281.25L151.059 244.81H93.3789Z" fill="white"/>
<path d="M117.999 244.81H93.3789L97.8689 281.25C97.8689 287.09 108.769 291.83 122.219 291.83C123.092 291.83 123.952 291.81 124.799 291.77C117.129 278.17 116.999 258.21 117.999 244.81Z" fill="#263238"/>
<path opacity="0.4" d="M117.999 244.81H93.3789L97.8689 281.25C97.8689 287.09 108.769 291.83 122.219 291.83C123.092 291.83 123.952 291.81 124.799 291.77C117.129 278.17 116.999 258.21 117.999 244.81Z" fill="white"/>
<path d="M93.3789 244.81L97.8689 281.25C97.8689 287.09 108.769 291.83 122.219 291.83C135.669 291.83 146.569 287.09 146.569 281.25L151.059 244.81H93.3789Z" stroke="#263238" stroke-linecap="round" stroke-linejoin="round"/>
<path d="M122.219 257.34C138.147 257.34 151.059 251.73 151.059 244.81C151.059 237.89 138.147 232.28 122.219 232.28C106.291 232.28 93.3789 237.89 93.3789 244.81C93.3789 251.73 106.291 257.34 122.219 257.34Z" fill="white" stroke="#263238" stroke-linecap="round" stroke-linejoin="round"/>
<path d="M122.219 255.38C136.452 255.38 147.989 250.5 147.989 244.48C147.989 238.46 136.452 233.58 122.219 233.58C107.987 233.58 96.4492 238.46 96.4492 244.48C96.4492 250.5 107.987 255.38 122.219 255.38Z" fill="#263238" stroke="#263238" stroke-linecap="round" stroke-linejoin="round"/>
<path d="M124.179 245.61C124.179 245.61 121.879 224.39 107.549 208.33C93.2191 192.27 96.7291 194.24 96.7291 194.24" stroke="#263238" stroke-linecap="round" stroke-linejoin="round"/>
<path d="M150.001 182.52C150.001 182.52 132.801 199.73 129.931 219.23C127.061 238.73 128.931 241.88 128.931 241.88" stroke="#263238" stroke-linecap="round" stroke-linejoin="round"/>
<path d="M127.001 244.44C127.001 244.44 123.641 232.44 120.201 208.33C116.761 184.22 118.481 171.63 118.481 171.63" stroke="#263238" stroke-linecap="round" stroke-linejoin="round"/>
<path d="M98.2201 200.8C98.2201 200.8 93.4101 206.02 86.0101 195.8C78.6101 185.58 81.0701 173.66 81.0701 173.66C81.0701 173.66 84.8401 179.41 90.5501 181.83C96.2601 184.25 104.6 198 98.2201 200.8Z" fill="#263238"/>
<path d="M118.44 177.36C118.44 177.36 111.56 179.08 110.99 166.47C110.42 153.86 118.99 145.25 118.99 145.25C118.99 145.25 118.99 152.13 122.43 157.25C125.87 162.37 125.33 178.51 118.44 177.36Z" fill="#263238"/>
<path d="M146.829 188.89C146.829 188.89 140.129 186.56 146.559 175.7C152.989 164.84 164.899 162.34 164.899 162.34C164.899 162.34 161.129 168.1 161.179 174.34C161.229 180.58 151.999 193.62 146.829 188.89Z" fill="#263238"/>
<path d="M126.47 242.74C126.47 242.74 131.06 222.09 140.81 212.35C146.594 206.559 154.416 203.263 162.6 203.17C162.6 203.17 151.13 207.76 147.69 216.93C144.25 226.1 138.49 246.18 138.49 246.18H109.85C109.85 246.18 106.4 238.73 96.6498 230.12C86.8998 221.51 70.8398 215.79 70.8398 215.79C70.8398 215.79 88.6198 209.48 101.24 214.64C113.86 219.8 123.03 241.64 123.03 241.64L126.47 242.74Z" fill="#263238"/>
<path d="M130.89 242.69C130.89 242.69 119.51 234.88 107.09 236.18C94.6701 237.48 93.6401 247.57 93.0901 250.5C92.7855 252.221 92.615 253.963 92.5801 255.71C92.5801 255.71 108.58 250.83 118.44 249.2C128.3 247.57 132.44 252.13 130.89 242.69Z" fill="#263238"/>
<path d="M126.65 242.69C126.65 242.69 133.81 234.88 141.65 236.18C149.49 237.48 150.11 247.57 150.43 250.5C150.628 252.23 150.738 253.969 150.76 255.71C150.76 255.71 140.67 250.83 134.49 249.2C128.31 247.57 125.67 252.13 126.65 242.69Z" fill="#263238"/>
<path d="M169.611 117.12H386.071C388.23 117.12 390.3 117.978 391.827 119.504C393.353 121.031 394.211 123.101 394.211 125.26V276.58H161.471V125.25C161.473 123.093 162.332 121.025 163.858 119.501C165.385 117.976 167.454 117.12 169.611 117.12V117.12Z" fill="#263238" stroke="#263238" stroke-linecap="round" stroke-linejoin="round"/>
<path d="M429.111 347.07H126.561L161.471 276.58H394.201L429.111 347.07Z" fill="white" stroke="#263238" stroke-linecap="round" stroke-linejoin="round"/>
<path d="M380.11 129.74H175.57V263.95H380.11V129.74Z" fill="#263238" stroke="#263238" stroke-linecap="round" stroke-linejoin="round"/>
<path d="M232.398 224.691C243.688 213.401 243.688 195.096 232.398 183.806C221.108 172.516 202.803 172.516 191.513 183.806C180.223 195.096 180.223 213.401 191.513 224.691C202.803 235.981 221.108 235.981 232.398 224.691Z" fill="#263238"/>
<path d="M299.21 224.689C310.5 213.399 310.5 195.094 299.21 183.804C287.92 172.514 269.615 172.514 258.325 183.804C247.035 195.094 247.035 213.399 258.325 224.689C269.615 235.979 287.92 235.979 299.21 224.689Z" fill="#263238"/>
<path d="M352.145 232.39C367.695 228.766 377.363 213.222 373.738 197.673C370.114 182.123 354.57 172.455 339.021 176.08C323.471 179.704 313.803 195.247 317.428 210.797C321.052 226.347 336.595 236.015 352.145 232.39Z" fill="#263238"/>
<path d="M192.09 196.88C192.09 196.88 204.83 162.08 212.32 162.08C219.81 162.08 233 196.47 233 196.47L230.77 196.67C230.77 196.67 217.82 166.53 213.98 164.67C210.14 162.81 203.05 173.77 194.35 196.84L192.09 196.88Z" fill="white" stroke="#263238" stroke-linecap="round" stroke-linejoin="round"/>
<path d="M193.38 194.85H231.67C232.816 194.85 233.915 195.305 234.725 196.115C235.535 196.926 235.99 198.024 235.99 199.17V219.71C235.99 220.628 235.626 221.508 234.977 222.157C234.328 222.806 233.448 223.17 232.53 223.17H192.53C191.613 223.17 190.733 222.806 190.084 222.157C189.435 221.508 189.07 220.628 189.07 219.71V199.18C189.069 198.613 189.179 198.051 189.395 197.526C189.611 197.002 189.928 196.525 190.329 196.122C190.729 195.72 191.204 195.401 191.728 195.183C192.252 194.964 192.813 194.851 193.38 194.85V194.85Z" fill="white" stroke="#263238" stroke-linecap="round" stroke-linejoin="round"/>
<path d="M189.461 210.03H231.941" stroke="#263238" stroke-linecap="round" stroke-linejoin="round"/>
<path d="M233.771 195.86C233.771 195.86 232.771 197.08 232.771 200.52C232.771 203.96 231.561 222.17 231.771 222.97C231.981 223.77 233.191 223.18 233.191 223.18" fill="white"/>
<path d="M233.771 195.86C233.771 195.86 232.771 197.08 232.771 200.52C232.771 203.96 231.561 222.17 231.771 222.97C231.981 223.77 233.191 223.18 233.191 223.18" stroke="#263238" stroke-linecap="round" stroke-linejoin="round"/>
<path d="M212.32 205.98H209.08V213.26H212.32V205.98Z" fill="white" stroke="#263238" stroke-linecap="round" stroke-linejoin="round"/>
<path d="M253.471 187.34C253.471 187.34 266.981 186.16 282.841 186.16C298.701 186.16 306.151 187.16 306.341 188.16C306.531 189.16 304.191 201.87 304.191 203.04C304.191 204.21 304.191 220.67 303.801 221.65C303.411 222.63 301.641 223.41 300.861 223.6C300.081 223.79 258.951 224.19 257.781 224.19C257.191 224.142 256.641 223.874 256.241 223.438C255.84 223.002 255.619 222.432 255.621 221.84C255.621 220.67 256.211 207.74 255.231 203.04C254.251 198.34 253.471 187.34 253.471 187.34Z" fill="white" stroke="#263238" stroke-linecap="round" stroke-linejoin="round"/>
<path d="M268 193.8C268 193.8 267.8 178.33 269.37 173.04C270.044 170.801 271.413 168.835 273.28 167.427C275.146 166.019 277.413 165.243 279.75 165.21C282.785 165.415 285.68 166.566 288.026 168.501C290.373 170.437 292.053 173.06 292.83 176C294.83 183.63 293.22 193.23 293.03 194.21C292.84 195.19 290.68 197.93 290.28 192.64C289.88 187.35 290.68 175.02 289.11 171.49C288.213 169.638 286.728 168.134 284.886 167.213C283.045 166.292 280.951 166.007 278.93 166.4C274.81 167.4 272.66 169.14 271.88 174.23C271.1 179.32 272.66 191.08 271.68 193.62C270.7 196.16 268.35 197.32 268 193.8Z" fill="white" stroke="#263238" stroke-linecap="round" stroke-linejoin="round"/>
<path d="M257.19 187.53C257.19 187.53 256.19 197.91 256.19 201.83C256.19 205.75 255.99 208.29 255.99 208.29" fill="white"/>
<path d="M257.19 187.53C257.19 187.53 256.19 197.91 256.19 201.83C256.19 205.75 255.99 208.29 255.99 208.29" stroke="#263238" stroke-linecap="round" stroke-linejoin="round"/>
<path d="M303 187.73C303 187.73 303.4 198.11 303.4 204.18" stroke="#263238" stroke-linecap="round" stroke-linejoin="round"/>
<path d="M353.5 185.74C353.258 185.743 353.023 185.657 352.839 185.498C352.655 185.34 352.534 185.12 352.5 184.88C350.57 172.81 348.15 159.5 346.91 155.18C345.08 159.26 341.06 172.25 337.73 184.06C337.658 184.325 337.482 184.551 337.243 184.687C337.004 184.823 336.721 184.858 336.455 184.785C336.19 184.712 335.965 184.537 335.829 184.298C335.693 184.059 335.658 183.775 335.73 183.51C335.73 183.43 337.87 175.9 340.19 168.39C345.02 152.73 345.93 152.39 346.65 152.16C346.83 152.099 347.022 152.081 347.21 152.109C347.398 152.137 347.576 152.209 347.73 152.32C348.26 152.71 348.99 153.24 351.87 169.16C353.26 176.84 354.48 184.48 354.49 184.56C354.515 184.693 354.512 184.83 354.482 184.961C354.452 185.093 354.395 185.218 354.316 185.327C354.236 185.436 354.135 185.528 354.019 185.598C353.903 185.667 353.774 185.712 353.64 185.73C353.594 185.738 353.547 185.742 353.5 185.74V185.74Z" fill="white" stroke="#263238" stroke-linecap="round" stroke-linejoin="round"/>
<path d="M321.051 182.38C321.051 182.38 340.961 181.16 347.821 181.43C354.681 181.7 366.871 182.43 366.821 183.22C366.771 184.01 366.531 209.22 365.821 214.22C365.111 219.22 361.541 225.5 358.441 226.65C355.341 227.8 344.921 227.38 339.581 227.16C334.241 226.94 329.431 226.24 327.031 222.83C324.631 219.42 322.911 205.1 322.911 205.1L321.051 182.38Z" fill="white" stroke="#263238" stroke-linecap="round" stroke-linejoin="round"/>
<path d="M336.871 187.86C336.88 187.468 336.773 187.081 336.564 186.749C336.355 186.417 336.053 186.154 335.696 185.992C335.339 185.83 334.941 185.777 334.554 185.839C334.167 185.901 333.806 186.076 333.517 186.342C333.228 186.607 333.024 186.952 332.93 187.333C332.835 187.714 332.855 188.114 332.987 188.484C333.118 188.854 333.356 189.176 333.669 189.412C333.983 189.648 334.359 189.786 334.751 189.81C335.019 189.826 335.288 189.788 335.541 189.698C335.795 189.608 336.027 189.468 336.225 189.286C336.423 189.104 336.582 188.884 336.693 188.639C336.804 188.394 336.864 188.129 336.871 187.86Z" fill="white" stroke="#263238" stroke-linecap="round" stroke-linejoin="round"/>
<path d="M355.879 189.133C356.063 188.027 355.315 186.982 354.209 186.798C353.103 186.614 352.058 187.361 351.874 188.467C351.69 189.573 352.438 190.619 353.544 190.803C354.649 190.987 355.695 190.239 355.879 189.133Z" fill="white" stroke="#263238" stroke-linecap="round" stroke-linejoin="round"/>
<path d="M324.531 215.88C324.531 215.88 338.831 214.67 365.001 215.99Z" fill="white"/>
<path d="M324.531 215.88C324.531 215.88 338.831 214.67 365.001 215.99" stroke="#263238" stroke-linecap="round" stroke-linejoin="round"/>
<path d="M376.25 133.7H178.74V149.76H376.25V133.7Z" fill="#263238"/>
<path d="M274.531 142.85H294.111" stroke="white" stroke-width="2" stroke-miterlimit="10"/>
<path d="M316.76 142.85H336.34" stroke="white" stroke-width="2" stroke-miterlimit="10"/>
<path d="M370.061 137.88C370.023 137.827 369.974 137.784 369.917 137.755C369.859 137.725 369.795 137.71 369.731 137.71H359.001L358.591 136.47C358.561 136.388 358.507 136.316 358.436 136.266C358.364 136.216 358.278 136.189 358.191 136.19H355.471C355.362 136.19 355.258 136.233 355.181 136.31C355.104 136.387 355.061 136.491 355.061 136.6C355.059 136.655 355.069 136.709 355.089 136.76C355.109 136.811 355.139 136.857 355.177 136.897C355.215 136.936 355.261 136.967 355.311 136.988C355.362 137.009 355.416 137.02 355.471 137.02H357.891L360.511 144.89C360.54 144.973 360.594 145.044 360.666 145.094C360.738 145.145 360.823 145.171 360.911 145.17H361.061C360.914 145.401 360.835 145.667 360.831 145.94C360.814 146.139 360.839 146.339 360.903 146.527C360.968 146.715 361.071 146.888 361.206 147.035C361.341 147.182 361.505 147.299 361.687 147.379C361.869 147.459 362.066 147.5 362.266 147.5C362.465 147.5 362.662 147.459 362.844 147.379C363.027 147.299 363.191 147.182 363.325 147.035C363.46 146.888 363.563 146.715 363.628 146.527C363.692 146.339 363.717 146.139 363.701 145.94C363.702 145.666 363.621 145.399 363.471 145.17H365.471C365.327 145.402 365.251 145.668 365.251 145.94C365.234 146.139 365.259 146.339 365.323 146.527C365.388 146.715 365.491 146.888 365.626 147.035C365.761 147.182 365.925 147.299 366.107 147.379C366.289 147.459 366.486 147.5 366.686 147.5C366.885 147.5 367.082 147.459 367.264 147.379C367.447 147.299 367.611 147.182 367.745 147.035C367.88 146.888 367.983 146.715 368.048 146.527C368.112 146.339 368.137 146.139 368.121 145.94C368.116 145.667 368.037 145.401 367.891 145.17H368.211C368.322 145.17 368.429 145.126 368.508 145.047C368.586 144.968 368.631 144.862 368.631 144.75C368.631 144.696 368.62 144.641 368.599 144.591C368.577 144.541 368.546 144.495 368.507 144.457C368.468 144.418 368.422 144.388 368.371 144.368C368.32 144.348 368.265 144.339 368.211 144.34H361.211L360.751 142.96H368.551C368.641 142.961 368.729 142.932 368.802 142.878C368.874 142.824 368.926 142.747 368.951 142.66L370.141 138.24C370.156 138.178 370.156 138.113 370.142 138.051C370.128 137.989 370.101 137.93 370.061 137.88ZM362.261 146.55C362.14 146.552 362.021 146.518 361.919 146.452C361.817 146.386 361.738 146.292 361.69 146.181C361.642 146.069 361.629 145.946 361.651 145.827C361.674 145.708 361.731 145.599 361.816 145.513C361.901 145.426 362.009 145.367 362.128 145.343C362.247 145.318 362.37 145.33 362.482 145.376C362.594 145.422 362.69 145.5 362.757 145.6C362.825 145.701 362.861 145.819 362.861 145.94C362.861 146.1 362.798 146.254 362.686 146.368C362.573 146.482 362.421 146.548 362.261 146.55V146.55ZM366.671 146.55C366.55 146.552 366.431 146.518 366.329 146.452C366.227 146.386 366.148 146.292 366.1 146.181C366.052 146.069 366.039 145.946 366.061 145.827C366.084 145.708 366.141 145.599 366.226 145.513C366.311 145.426 366.419 145.367 366.538 145.343C366.657 145.318 366.78 145.33 366.892 145.376C367.004 145.422 367.1 145.5 367.167 145.6C367.235 145.701 367.271 145.819 367.271 145.94C367.272 146.02 367.257 146.099 367.228 146.173C367.198 146.247 367.154 146.314 367.099 146.371C367.043 146.428 366.976 146.473 366.903 146.504C366.829 146.534 366.75 146.55 366.671 146.55V146.55ZM367.781 142.13H366.241V138.55H367.781V142.13ZM363.861 138.55H365.411V142.13H363.861V138.55ZM363.031 142.13H361.481V138.55H363.001L363.031 142.13ZM359.271 138.55H360.651V142.13H360.461L359.271 138.55ZM368.621 140.66V138.55H369.181L368.621 140.66Z" fill="white"/>
<path d="M373.291 137.62C373.301 137.015 373.131 136.42 372.801 135.912C372.472 135.404 372 135.005 371.443 134.767C370.887 134.528 370.272 134.461 369.677 134.573C369.082 134.685 368.534 134.971 368.103 135.396C367.671 135.82 367.376 136.363 367.254 136.956C367.132 137.549 367.189 138.165 367.419 138.725C367.648 139.286 368.039 139.765 368.541 140.102C369.044 140.44 369.636 140.62 370.241 140.62C371.041 140.618 371.807 140.302 372.377 139.742C372.947 139.181 373.275 138.419 373.291 137.62V137.62Z" fill="white"/>
<path d="M369.001 139.5C368.927 139.444 368.877 139.362 368.861 139.27C368.84 139.171 368.844 139.068 368.872 138.97C368.899 138.872 368.951 138.783 369.021 138.71L370.421 137.34C370.502 137.28 370.569 137.203 370.617 137.115C370.665 137.027 370.694 136.93 370.701 136.83C370.702 136.768 370.688 136.706 370.66 136.651C370.632 136.595 370.592 136.547 370.541 136.51C370.432 136.428 370.298 136.386 370.161 136.39H370.001H369.821L369.681 136.45L369.531 136.54L369.401 136.61C369.346 136.63 369.286 136.63 369.231 136.61C369.164 136.594 369.104 136.555 369.061 136.5C369.018 136.442 368.985 136.378 368.961 136.31C368.936 136.242 368.936 136.168 368.961 136.1C368.991 136.022 369.048 135.958 369.121 135.92C369.493 135.691 369.925 135.576 370.361 135.59C370.702 135.583 371.032 135.708 371.281 135.94C371.393 136.041 371.482 136.164 371.543 136.302C371.603 136.44 371.633 136.589 371.631 136.74C371.631 136.957 371.576 137.17 371.471 137.36C371.346 137.588 371.176 137.789 370.971 137.95L369.901 138.8H371.301C371.34 138.799 371.378 138.809 371.412 138.828C371.445 138.848 371.473 138.876 371.491 138.91C371.537 138.986 371.561 139.072 371.561 139.16C371.56 139.254 371.536 139.347 371.491 139.43C371.471 139.463 371.444 139.49 371.41 139.509C371.377 139.528 371.34 139.539 371.301 139.54H369.301C369.251 139.555 369.199 139.56 369.147 139.553C369.095 139.546 369.045 139.528 369.001 139.5V139.5Z" fill="#263238"/>
<path d="M258.401 146.55H186.101C185.469 146.55 184.842 146.425 184.258 146.183C183.674 145.941 183.143 145.586 182.696 145.138C182.25 144.69 181.895 144.159 181.654 143.574C181.413 142.989 181.29 142.363 181.291 141.73V141.73C181.291 140.454 181.798 139.231 182.7 138.329C183.602 137.427 184.825 136.92 186.101 136.92H258.401C259.677 136.92 260.9 137.427 261.802 138.329C262.704 139.231 263.211 140.454 263.211 141.73C263.212 142.363 263.089 142.989 262.848 143.574C262.607 144.159 262.253 144.69 261.806 145.138C261.359 145.586 260.828 145.941 260.244 146.183C259.66 146.425 259.034 146.55 258.401 146.55V146.55Z" fill="white"/>
<path d="M197.111 242.16H226.711" stroke="#263238" stroke-width="2" stroke-linecap="round" stroke-linejoin="round"/>
<path d="M197.111 247.77H226.711" stroke="#263238" stroke-width="2" stroke-linecap="round" stroke-linejoin="round"/>
<path d="M263.961 242.16H293.571" stroke="#263238" stroke-width="2" stroke-linecap="round" stroke-linejoin="round"/>
<path d="M263.961 247.77H293.571" stroke="#263238" stroke-width="2" stroke-linecap="round" stroke-linejoin="round"/>
<path d="M330.82 242.16H360.42" stroke="#263238" stroke-width="2" stroke-linecap="round" stroke-linejoin="round"/>
<path d="M330.82 247.77H360.42" stroke="#263238" stroke-width="2" stroke-linecap="round" stroke-linejoin="round"/>
<path d="M268.13 298.9L268.53 290.31H256.24L255.42 298.9H268.13Z" fill="#263238" stroke="white" stroke-linecap="round" stroke-linejoin="round"/>
<path d="M293.55 298.9L293.13 290.31H280.83L280.84 298.9H293.55Z" fill="#263238" stroke="white" stroke-linecap="round" stroke-linejoin="round"/>
<path d="M359.74 308.08H372.88L369.8 298.9H357.09L359.74 308.08Z" fill="#263238" stroke="white" stroke-linecap="round" stroke-linejoin="round"/>
<path d="M255.421 298.9L256.241 290.31H243.941L242.721 298.9H255.421Z" fill="#263238" stroke="white" stroke-linecap="round" stroke-linejoin="round"/>
<path d="M230.011 298.9L231.641 290.31H219.351L217.301 298.9H230.011Z" fill="#263238" stroke="white" stroke-linecap="round" stroke-linejoin="round"/>
<path d="M344.382 298.9L342.322 290.31H330.021L331.672 298.9H344.382Z" fill="#263238" stroke="white" stroke-linecap="round" stroke-linejoin="round"/>
<path d="M357.09 298.9L354.61 290.31H342.32L344.38 298.9H357.09Z" fill="#263238" stroke="white" stroke-linecap="round" stroke-linejoin="round"/>
<path d="M217.3 298.9L219.35 290.31H207.05L204.59 298.9H217.3Z" fill="#263238" stroke="white" stroke-linecap="round" stroke-linejoin="round"/>
<path d="M306.261 298.9L305.431 290.31H293.131L293.551 298.9H306.261Z" fill="#263238" stroke="white" stroke-linecap="round" stroke-linejoin="round"/>
<path d="M369.801 298.9L366.911 290.31H354.611L357.091 298.9H369.801Z" fill="#263238" stroke="white" stroke-linecap="round" stroke-linejoin="round"/>
<path d="M331.671 298.9L330.021 290.31H317.721L318.961 298.9H331.671Z" fill="#263238" stroke="white" stroke-linecap="round" stroke-linejoin="round"/>
<path d="M318.96 298.9L317.72 290.31H305.43L306.26 298.9H318.96Z" fill="#263238" stroke="white" stroke-linecap="round" stroke-linejoin="round"/>
<path d="M280.841 298.9L280.831 290.31H268.531L268.131 298.9H280.841Z" fill="#263238" stroke="white" stroke-linecap="round" stroke-linejoin="round"/>
<path d="M191.88 298.9H179.17L175.66 308.08H188.81L191.88 298.9Z" fill="#263238" stroke="white" stroke-linecap="round" stroke-linejoin="round"/>
<path d="M194.75 290.31H182.46L179.17 298.9H191.88L194.75 290.31Z" fill="#263238" stroke="white" stroke-linecap="round" stroke-linejoin="round"/>
<path d="M204.591 298.9L207.051 290.31H194.751L191.881 298.9H204.591Z" fill="#263238" stroke="white" stroke-linecap="round" stroke-linejoin="round"/>
<path d="M171.901 317.92L167.861 328.5H181.991L185.521 317.92H171.901Z" fill="#263238" stroke="white" stroke-linecap="round" stroke-linejoin="round"/>
<path d="M188.81 308.08H175.66L171.9 317.92H185.52L188.81 308.08Z" fill="#263238" stroke="white" stroke-linecap="round" stroke-linejoin="round"/>
<path d="M185.52 317.92L181.99 328.5H196.12L199.14 317.92H185.52Z" fill="#263238" stroke="white" stroke-linecap="round" stroke-linejoin="round"/>
<path d="M242.72 298.9L243.94 290.31H231.64L230.01 298.9H242.72Z" fill="#263238" stroke="white" stroke-linecap="round" stroke-linejoin="round"/>
<path d="M241.4 308.08L242.72 298.9H230.01L228.26 308.08H241.4Z" fill="#263238" stroke="white" stroke-linecap="round" stroke-linejoin="round"/>
<path d="M228.261 308.08L230.011 298.9H217.301L215.111 308.08H228.261Z" fill="#263238" stroke="white" stroke-linecap="round" stroke-linejoin="round"/>
<path d="M254.55 308.08L255.42 298.9H242.72L241.4 308.08H254.55Z" fill="#263238" stroke="white" stroke-linecap="round" stroke-linejoin="round"/>
<path d="M204.591 298.9H191.881L188.811 308.08H201.961L204.591 298.9Z" fill="#263238" stroke="white" stroke-linecap="round" stroke-linejoin="round"/>
<path d="M362.57 317.92H376.19L372.88 308.08H359.74L362.57 317.92Z" fill="#263238" stroke="white" stroke-linecap="round" stroke-linejoin="round"/>
<path d="M215.111 308.08L217.301 298.9H204.591L201.961 308.08H215.111Z" fill="#263238" stroke="white" stroke-linecap="round" stroke-linejoin="round"/>
<path d="M188.811 308.08L185.521 317.92H199.141L201.961 308.08H188.811Z" fill="#263238" stroke="white" stroke-linecap="round" stroke-linejoin="round"/>
<path d="M333.441 308.08L331.671 298.9H318.961L320.291 308.08H333.441Z" fill="#263238" stroke="white" stroke-linecap="round" stroke-linejoin="round"/>
<path d="M320.29 308.08L318.96 298.9H306.26L307.14 308.08H320.29Z" fill="#263238" stroke="white" stroke-linecap="round" stroke-linejoin="round"/>
<path d="M359.741 308.08L357.091 298.9H344.381L346.591 308.08H359.741Z" fill="#263238" stroke="white" stroke-linecap="round" stroke-linejoin="round"/>
<path d="M280.851 308.08L280.841 298.9H268.131L267.701 308.08H280.851Z" fill="#263238" stroke="white" stroke-linecap="round" stroke-linejoin="round"/>
<path d="M307.141 308.08L306.261 298.9H293.551L294.001 308.08H307.141Z" fill="#263238" stroke="white" stroke-linecap="round" stroke-linejoin="round"/>
<path d="M294 308.08L293.55 298.9H280.84L280.85 308.08H294Z" fill="#263238" stroke="white" stroke-linecap="round" stroke-linejoin="round"/>
<path d="M267.701 308.08L268.131 298.9H255.421L254.551 308.08H267.701Z" fill="#263238" stroke="white" stroke-linecap="round" stroke-linejoin="round"/>
<path d="M307.141 308.08L308.101 317.92H321.711L320.291 308.08H307.141Z" fill="#263238" stroke="white" stroke-linecap="round" stroke-linejoin="round"/>
<path d="M320.291 308.08L321.711 317.92H335.331L333.441 308.08H320.291Z" fill="#263238" stroke="white" stroke-linecap="round" stroke-linejoin="round"/>
<path d="M201.961 308.08L199.141 317.92H212.761L215.111 308.08H201.961Z" fill="#263238" stroke="white" stroke-linecap="round" stroke-linejoin="round"/>
<path d="M333.441 308.08L335.331 317.92H348.951L346.591 308.08H333.441Z" fill="#263238" stroke="white" stroke-linecap="round" stroke-linejoin="round"/>
<path d="M280.85 308.08L280.86 317.92H294.48L294 308.08H280.85Z" fill="#263238" stroke="white" stroke-linecap="round" stroke-linejoin="round"/>
<path d="M346.59 308.08L348.95 317.92H362.57L359.74 308.08H346.59Z" fill="#263238" stroke="white" stroke-linecap="round" stroke-linejoin="round"/>
<path d="M294 308.08L294.48 317.92H308.1L307.14 308.08H294Z" fill="#263238" stroke="white" stroke-linecap="round" stroke-linejoin="round"/>
<path d="M228.261 308.08L226.381 317.92H240.001L241.401 308.08H228.261Z" fill="#263238" stroke="white" stroke-linecap="round" stroke-linejoin="round"/>
<path d="M215.11 308.08L212.76 317.92H226.38L228.26 308.08H215.11Z" fill="#263238" stroke="white" stroke-linecap="round" stroke-linejoin="round"/>
<path d="M267.7 308.08L267.24 317.92H280.86L280.85 308.08H267.7Z" fill="#263238" stroke="white" stroke-linecap="round" stroke-linejoin="round"/>
<path d="M254.551 308.08L253.621 317.92H267.241L267.701 308.08H254.551Z" fill="#263238" stroke="white" stroke-linecap="round" stroke-linejoin="round"/>
<path d="M241.4 308.08L240 317.92H253.62L254.55 308.08H241.4Z" fill="#263238" stroke="white" stroke-linecap="round" stroke-linejoin="round"/>
<path d="M346.59 308.08L344.38 298.9H331.67L333.44 308.08H346.59Z" fill="#263238" stroke="white" stroke-linecap="round" stroke-linejoin="round"/>
<path d="M194.751 290.31L197.691 281.51H185.811L182.461 290.31H194.751Z" fill="#263238" stroke="white" stroke-linecap="round" stroke-linejoin="round"/>
<path d="M182.461 290.31H171.101L167.441 298.9H179.171L182.461 290.31Z" fill="#263238" stroke="white" stroke-linecap="round" stroke-linejoin="round"/>
<path d="M185.81 281.51H174.85L171.1 290.31H182.46L185.81 281.51Z" fill="#263238" stroke="white" stroke-linecap="round" stroke-linejoin="round"/>
<path d="M179.171 298.9H167.441L163.531 308.08H175.661L179.171 298.9Z" fill="#263238" stroke="white" stroke-linecap="round" stroke-linejoin="round"/>
<path d="M175.66 308.08H163.53L159.33 317.92H171.9L175.66 308.08Z" fill="#263238" stroke="white" stroke-linecap="round" stroke-linejoin="round"/>
<path d="M171.9 317.92H159.33L154.82 328.5H167.86L171.9 317.92Z" fill="#263238" stroke="white" stroke-linecap="round" stroke-linejoin="round"/>
<path d="M382.5 298.9L386.03 308.08H397.66L393.75 298.9H382.5Z" fill="#263238" stroke="white" stroke-linecap="round" stroke-linejoin="round"/>
<path d="M389.811 317.92H401.861L397.661 308.08H386.031L389.811 317.92Z" fill="#263238" stroke="white" stroke-linecap="round" stroke-linejoin="round"/>
<path d="M393.871 328.5H406.371L401.861 317.92H389.811L393.871 328.5Z" fill="#263238" stroke="white" stroke-linecap="round" stroke-linejoin="round"/>
<path d="M293.13 290.31L292.7 281.51H280.82L280.83 290.31H293.13Z" fill="#263238" stroke="white" stroke-linecap="round" stroke-linejoin="round"/>
<path d="M382.501 298.9H393.751L390.091 290.31H379.211L382.501 298.9Z" fill="#263238" stroke="white" stroke-linecap="round" stroke-linejoin="round"/>
<path d="M376.191 317.92H389.811L386.031 308.08H372.881L376.191 317.92Z" fill="#263238" stroke="white" stroke-linecap="round" stroke-linejoin="round"/>
<path d="M207.05 290.31L209.57 281.51H197.69L194.75 290.31H207.05Z" fill="#263238" stroke="white" stroke-linecap="round" stroke-linejoin="round"/>
<path d="M366.91 290.31L369.8 298.9H382.5L379.21 290.31H366.91Z" fill="#263238" stroke="white" stroke-linecap="round" stroke-linejoin="round"/>
<path d="M390.09 290.31L386.34 281.51H375.83L379.21 290.31H390.09Z" fill="#263238" stroke="white" stroke-linecap="round" stroke-linejoin="round"/>
<path d="M379.211 290.31L375.831 281.51H363.961L366.911 290.31H379.211Z" fill="#263238" stroke="white" stroke-linecap="round" stroke-linejoin="round"/>
<path d="M335.33 317.92L337.37 328.5H351.49L348.95 317.92H335.33Z" fill="#263238" stroke="white" stroke-linecap="round" stroke-linejoin="round"/>
<path d="M379.741 328.5H393.871L389.811 317.92H376.191L379.741 328.5Z" fill="#263238" stroke="white" stroke-linecap="round" stroke-linejoin="round"/>
<path d="M366.91 290.31L363.96 281.51H352.08L354.61 290.31H366.91Z" fill="#263238" stroke="white" stroke-linecap="round" stroke-linejoin="round"/>
<path d="M362.57 317.92L365.62 328.5H379.74L376.19 317.92H362.57Z" fill="#263238" stroke="white" stroke-linecap="round" stroke-linejoin="round"/>
<path d="M348.951 317.92L351.491 328.5H365.621L362.571 317.92H348.951Z" fill="#263238" stroke="white" stroke-linecap="round" stroke-linejoin="round"/>
<path d="M372.881 308.08H386.031L382.501 298.9H369.801L372.881 308.08Z" fill="#263238" stroke="white" stroke-linecap="round" stroke-linejoin="round"/>
<path d="M256.241 290.31L257.071 281.51H245.191L243.941 290.31H256.241Z" fill="#263238" stroke="white" stroke-linecap="round" stroke-linejoin="round"/>
<path d="M354.611 290.31L352.081 281.51H340.201L342.321 290.31H354.611Z" fill="#263238" stroke="white" stroke-linecap="round" stroke-linejoin="round"/>
<path d="M243.941 290.31L245.191 281.51H233.321L231.641 290.31H243.941Z" fill="#263238" stroke="white" stroke-linecap="round" stroke-linejoin="round"/>
<path d="M280.831 290.31L280.821 281.51H268.951L268.531 290.31H280.831Z" fill="#263238" stroke="white" stroke-linecap="round" stroke-linejoin="round"/>
<path d="M231.64 290.31L233.32 281.51H221.44L219.35 290.31H231.64Z" fill="#263238" stroke="white" stroke-linecap="round" stroke-linejoin="round"/>
<path d="M219.351 290.31L221.441 281.51H209.571L207.051 290.31H219.351Z" fill="#263238" stroke="white" stroke-linecap="round" stroke-linejoin="round"/>
<path d="M268.53 290.31L268.95 281.51H257.07L256.24 290.31H268.53Z" fill="#263238" stroke="white" stroke-linecap="round" stroke-linejoin="round"/>
<path d="M342.32 290.31L340.2 281.51H328.33L330.02 290.31H342.32Z" fill="#263238" stroke="white" stroke-linecap="round" stroke-linejoin="round"/>
<path d="M330.021 290.31L328.331 281.51H316.451L317.721 290.31H330.021Z" fill="#263238" stroke="white" stroke-linecap="round" stroke-linejoin="round"/>
<path d="M305.431 290.31L304.571 281.51H292.701L293.131 290.31H305.431Z" fill="#263238" stroke="white" stroke-linecap="round" stroke-linejoin="round"/>
<path d="M335.331 317.92H321.711H308.101H294.481H280.861H267.241H253.621H240.001H226.381H212.761H199.141L196.121 328.5H210.241H224.371H238.491H252.621H266.741H280.871H294.991H309.121H323.241H337.371L335.331 317.92Z" fill="#263238" stroke="white" stroke-linecap="round" stroke-linejoin="round"/>
<path d="M317.72 290.31L316.45 281.51H304.57L305.43 290.31H317.72Z" fill="#263238" stroke="white" stroke-linecap="round" stroke-linejoin="round"/>
<path d="M429.251 347.07H126.561V351.37H429.251V347.07Z" fill="#263238" stroke="#263238" stroke-linecap="round" stroke-linejoin="round"/>
<path d="M327.73 422.85L218.1 423.72C215.76 423.72 214.1 422.34 214.39 420.61L221.39 379.51C221.61 378.21 223.39 377.16 225.39 377.15L319.32 376.72C321.32 376.72 323.09 377.72 323.32 379.03L331.32 419.72C331.63 421.42 330 422.84 327.73 422.85Z" fill="#263238" stroke="#263238" stroke-linecap="round" stroke-linejoin="round"/>
<path d="M275.75 384.1H310.14" stroke="#263238" stroke-linecap="round" stroke-linejoin="round"/>
<path d="M258.012 387.01H310.142" stroke="#263238" stroke-linecap="round" stroke-linejoin="round"/>
<path d="M256.591 412.13C235.731 418.77 222.371 419.95 214.591 419.56L214.341 421.04C214.091 422.53 215.521 423.74 217.531 423.72L328.331 422.85C330.331 422.85 331.681 421.62 331.391 420.14L326.601 395.64C297.661 394.9 289.301 401.73 256.591 412.13Z" fill="#263238" stroke="#263238" stroke-linecap="round" stroke-linejoin="round"/>
<path d="M238.671 394.57L230.021 394.62C229.211 394.62 228.621 394.18 228.701 393.62L229.441 388.12C229.521 387.6 230.211 387.17 230.991 387.17L239.431 387.12C240.211 387.12 240.801 387.54 240.751 388.06L240.221 393.55C240.171 394.11 239.471 394.56 238.671 394.57Z" fill="white" stroke="#263238" stroke-linecap="round" stroke-linejoin="round"/>
<path d="M235.722 392H233.582C233.192 392 232.902 391.79 232.932 391.53L233.102 390.17C233.102 389.91 233.472 389.7 233.852 389.7H236.002C236.392 389.7 236.682 389.91 236.652 390.16L236.502 391.52C236.452 391.76 236.112 392 235.722 392Z" fill="white" stroke="#263238" stroke-linecap="round" stroke-linejoin="round"/>
<path d="M229.461 388H232.781C233.421 388 233.901 388.34 233.851 388.78L233.741 389.7" stroke="#263238" stroke-linecap="round" stroke-linejoin="round"/>
<path d="M240.771 388H237.501C236.851 388 236.291 388.35 236.241 388.78L236.141 389.71" stroke="#263238" stroke-linecap="round" stroke-linejoin="round"/>
<path d="M228.67 393.84H232.05C232.71 393.84 233.29 393.47 233.34 393.02L233.45 392.08" stroke="#263238" stroke-linecap="round" stroke-linejoin="round"/>
<path d="M240.201 393.77H236.871C236.211 393.77 235.711 393.42 235.761 392.97L235.871 392.02" stroke="#263238" stroke-linecap="round" stroke-linejoin="round"/>
<path d="M229.07 391.04L232.99 391.02" stroke="#263238" stroke-linecap="round" stroke-linejoin="round"/>
<path d="M236.441 391L240.351 390.98" stroke="#263238" stroke-linecap="round" stroke-linejoin="round"/>
<path d="M227.77 406.16C227.599 406.103 227.439 406.015 227.3 405.9C227.187 405.785 227.099 405.649 227.04 405.5C226.982 405.343 226.948 405.177 226.94 405.01C226.921 404.83 226.921 404.649 226.94 404.47C226.943 404.218 226.998 403.969 227.103 403.74C227.207 403.51 227.358 403.305 227.547 403.138C227.735 402.97 227.956 402.844 228.196 402.767C228.436 402.69 228.689 402.663 228.94 402.69C230.08 402.69 230.58 403.27 230.43 404.45C230.41 404.633 230.373 404.814 230.32 404.99C230.266 405.16 230.189 405.321 230.09 405.47C229.991 405.627 229.866 405.765 229.72 405.88C229.56 405.999 229.381 406.091 229.19 406.15C228.956 406.215 228.713 406.249 228.47 406.25C228.233 406.256 227.997 406.226 227.77 406.16V406.16ZM228.86 405.81C228.958 405.777 229.051 405.733 229.14 405.68C229.214 405.625 229.281 405.561 229.34 405.49C229.403 405.417 229.457 405.337 229.5 405.25C229.543 405.167 229.576 405.08 229.6 404.99C229.6 404.89 229.65 404.8 229.67 404.72C229.676 404.63 229.676 404.54 229.67 404.45C229.67 404.35 229.67 404.26 229.67 404.18V403.91C229.676 403.82 229.676 403.73 229.67 403.64C229.649 403.563 229.619 403.489 229.58 403.42C229.538 403.348 229.484 403.284 229.42 403.23C229.346 403.182 229.265 403.145 229.18 403.12C229.071 403.099 228.959 403.099 228.85 403.12C228.734 403.104 228.616 403.104 228.5 403.12C228.405 403.148 228.314 403.188 228.23 403.24C228.154 403.292 228.086 403.357 228.03 403.43C227.967 403.493 227.916 403.568 227.88 403.65C227.836 403.737 227.799 403.827 227.77 403.92C227.74 404.008 227.716 404.098 227.7 404.19C227.694 404.283 227.694 404.377 227.7 404.47V404.73V405C227.694 405.09 227.694 405.18 227.7 405.27C227.721 405.35 227.751 405.427 227.79 405.5C227.826 405.573 227.877 405.638 227.94 405.69C228.014 405.742 228.094 405.782 228.18 405.81C228.292 405.831 228.408 405.831 228.52 405.81C228.633 405.825 228.747 405.825 228.86 405.81V405.81Z" fill="white"/>
<path d="M232.581 406.12C232.406 406.073 232.244 405.984 232.111 405.86C231.99 405.751 231.897 405.613 231.841 405.46C231.779 405.307 231.742 405.145 231.731 404.98C231.712 404.8 231.712 404.619 231.731 404.44C231.73 404.193 231.781 403.949 231.88 403.722C231.978 403.496 232.123 403.292 232.304 403.125C232.486 402.958 232.7 402.83 232.934 402.75C233.168 402.67 233.415 402.639 233.661 402.66C234.811 402.66 235.311 403.23 235.181 404.42C235.164 404.603 235.131 404.783 235.081 404.96C235.025 405.129 234.948 405.29 234.851 405.44C234.754 405.592 234.636 405.73 234.501 405.85C234.342 405.968 234.162 406.056 233.971 406.11C233.738 406.184 233.495 406.221 233.251 406.22C233.024 406.225 232.797 406.191 232.581 406.12ZM233.661 405.77C233.76 405.744 233.855 405.704 233.941 405.65C234.017 405.593 234.084 405.526 234.141 405.45C234.2 405.38 234.251 405.302 234.291 405.22C234.332 405.136 234.366 405.049 234.391 404.96C234.391 404.86 234.441 404.77 234.461 404.69V404.42C234.461 404.32 234.461 404.23 234.461 404.15C234.466 404.057 234.466 403.963 234.461 403.87C234.467 403.783 234.467 403.696 234.461 403.61C234.441 403.531 234.407 403.457 234.361 403.39C234.322 403.316 234.268 403.251 234.201 403.2C234.127 403.152 234.046 403.115 233.961 403.09C233.852 403.069 233.74 403.069 233.631 403.09C233.515 403.074 233.397 403.074 233.281 403.09C233.189 403.116 233.101 403.156 233.021 403.21C232.94 403.26 232.869 403.324 232.811 403.4C232.755 403.468 232.704 403.542 232.661 403.62C232.661 403.7 232.591 403.79 232.561 403.89C232.531 403.99 232.561 404.08 232.491 404.16C232.421 404.24 232.491 404.34 232.491 404.44C232.487 404.527 232.487 404.613 232.491 404.7V405C232.485 405.09 232.485 405.18 232.491 405.27C232.514 405.351 232.547 405.428 232.591 405.5C232.63 405.571 232.681 405.636 232.741 405.69C232.817 405.744 232.902 405.784 232.991 405.81C233.104 405.826 233.219 405.826 233.331 405.81C233.443 405.816 233.555 405.803 233.661 405.77V405.77Z" fill="white"/>
<path d="M237.381 406.09C237.206 406.041 237.045 405.952 236.911 405.83C236.789 405.721 236.697 405.583 236.641 405.43C236.57 405.279 236.53 405.116 236.521 404.95C236.501 404.771 236.501 404.589 236.521 404.41C236.514 404.164 236.559 403.919 236.654 403.692C236.749 403.465 236.891 403.261 237.07 403.093C237.25 402.925 237.463 402.796 237.696 402.717C237.929 402.637 238.176 402.607 238.421 402.63C239.561 402.63 240.081 403.2 239.971 404.39C239.954 404.573 239.92 404.753 239.871 404.93C239.818 405.097 239.747 405.258 239.661 405.41C239.565 405.563 239.443 405.699 239.301 405.81C239.145 405.931 238.969 406.023 238.781 406.08C238.551 406.154 238.312 406.192 238.071 406.19C237.837 406.195 237.603 406.161 237.381 406.09V406.09ZM238.461 405.74C238.557 405.716 238.648 405.675 238.731 405.62C238.81 405.564 238.881 405.497 238.941 405.42C238.997 405.349 239.044 405.272 239.081 405.19C239.12 405.106 239.153 405.019 239.181 404.93C239.181 404.83 239.201 404.74 239.241 404.66V404.39C239.241 404.29 239.241 404.2 239.241 404.12C239.245 404.027 239.245 403.933 239.241 403.84C239.235 403.752 239.218 403.664 239.191 403.58C239.17 403.502 239.136 403.427 239.091 403.36C239.054 403.284 238.999 403.219 238.931 403.17C238.858 403.12 238.776 403.082 238.691 403.06C238.58 403.027 238.466 403.01 238.351 403.01C238.236 403.015 238.122 403.032 238.011 403.06C237.918 403.086 237.83 403.126 237.751 403.18C237.675 403.229 237.607 403.29 237.551 403.36C237.494 403.432 237.443 403.509 237.401 403.59C237.361 403.674 237.328 403.761 237.301 403.85C237.272 403.941 237.252 404.035 237.241 404.13C237.234 404.223 237.234 404.317 237.241 404.41C237.241 404.5 237.241 404.59 237.241 404.67C237.236 404.76 237.236 404.85 237.241 404.94C237.234 405.03 237.234 405.12 237.241 405.21C237.267 405.289 237.301 405.366 237.341 405.44C237.383 405.509 237.437 405.57 237.501 405.62C237.576 405.677 237.661 405.721 237.751 405.75C237.863 405.766 237.978 405.766 238.091 405.75C238.214 405.766 238.339 405.762 238.461 405.74V405.74Z" fill="white"/>
<path d="M242.18 406.06C242.006 406.01 241.845 405.921 241.71 405.8C241.59 405.688 241.494 405.552 241.43 405.4C241.364 405.247 241.32 405.085 241.3 404.92C241.29 404.74 241.29 404.56 241.3 404.38C241.291 404.135 241.334 403.891 241.426 403.664C241.519 403.437 241.659 403.232 241.837 403.063C242.015 402.895 242.227 402.766 242.458 402.686C242.69 402.606 242.936 402.577 243.18 402.6C244.32 402.6 244.85 403.17 244.75 404.36C244.743 404.54 244.712 404.718 244.66 404.89C244.617 405.062 244.55 405.227 244.46 405.38C244.368 405.533 244.25 405.668 244.11 405.78C243.954 405.899 243.778 405.991 243.59 406.05C243.36 406.119 243.121 406.156 242.88 406.16C242.643 406.166 242.407 406.132 242.18 406.06V406.06ZM243.26 405.71C243.358 405.683 243.449 405.639 243.53 405.58C243.607 405.527 243.674 405.463 243.73 405.39C243.78 405.31 243.83 405.24 243.87 405.16L243.96 404.9C243.96 404.8 243.98 404.71 244.02 404.63V404.36C244.02 404.26 244.02 404.17 244.02 404.08C244.025 403.99 244.025 403.9 244.02 403.81C244.006 403.722 243.986 403.635 243.96 403.55C243.942 403.471 243.908 403.396 243.86 403.33C243.821 403.256 243.766 403.191 243.7 403.14C243.626 403.086 243.541 403.048 243.45 403.03C243.341 403.014 243.23 403.014 243.12 403.03C243.004 403.014 242.887 403.014 242.77 403.03C242.678 403.056 242.59 403.096 242.51 403.15C242.437 403.202 242.37 403.262 242.31 403.33C242.26 403.41 242.21 403.48 242.17 403.56L242.08 403.82C242.052 403.911 242.032 404.005 242.02 404.1C242.02 404.18 242.02 404.27 242.02 404.37C242.02 404.47 242.02 404.56 242.02 404.64C242.016 404.73 242.016 404.82 242.02 404.91C242.029 404.998 242.046 405.085 242.07 405.17C242.093 405.251 242.127 405.328 242.17 405.4C242.214 405.474 242.271 405.539 242.34 405.59C242.412 405.646 242.493 405.686 242.58 405.71C242.69 405.747 242.805 405.764 242.92 405.76C243.036 405.758 243.15 405.742 243.26 405.71V405.71Z" fill="white"/>
<path d="M252.4 406C252.223 405.951 252.058 405.862 251.92 405.74C251.796 405.629 251.698 405.492 251.63 405.34C251.555 405.189 251.504 405.027 251.48 404.86C251.46 404.681 251.46 404.5 251.48 404.32C251.46 404.079 251.493 403.836 251.577 403.608C251.661 403.381 251.795 403.175 251.967 403.005C252.14 402.835 252.348 402.706 252.577 402.625C252.806 402.545 253.049 402.516 253.29 402.54C254.43 402.54 254.97 403.12 254.92 404.3C254.913 404.482 254.889 404.663 254.85 404.84C254.809 405.008 254.745 405.169 254.66 405.32C254.575 405.472 254.463 405.608 254.33 405.72C254.176 405.838 254.004 405.929 253.82 405.99C253.591 406.065 253.351 406.102 253.11 406.1C252.87 406.108 252.629 406.074 252.4 406V406ZM253.46 405.65C253.556 405.624 253.647 405.583 253.73 405.53C253.801 405.471 253.865 405.404 253.92 405.33C253.973 405.259 254.017 405.182 254.05 405.1C254.088 405.016 254.118 404.929 254.14 404.84C254.14 404.74 254.14 404.65 254.14 404.57C254.146 404.48 254.146 404.39 254.14 404.3C254.145 404.21 254.145 404.12 254.14 404.03C254.145 403.94 254.145 403.85 254.14 403.76C254.14 403.66 254.14 403.57 254.08 403.5C254.05 403.421 254.013 403.344 253.97 403.27C253.921 403.2 253.86 403.14 253.79 403.09C253.715 403.034 253.63 402.994 253.54 402.97C253.431 402.954 253.32 402.954 253.21 402.97C253.095 402.97 252.98 402.987 252.87 403.02C252.78 403.047 252.692 403.084 252.61 403.13C252.537 403.183 252.473 403.247 252.42 403.32C252.364 403.389 252.32 403.466 252.29 403.55C252.251 403.633 252.221 403.72 252.2 403.81C252.2 403.91 252.2 404 252.15 404.08C252.145 404.173 252.145 404.267 252.15 404.36C252.145 404.447 252.145 404.533 252.15 404.62C252.145 404.71 252.145 404.8 252.15 404.89C252.158 404.982 252.179 405.073 252.21 405.16C252.237 405.241 252.274 405.318 252.32 405.39C252.366 405.462 252.423 405.527 252.49 405.58C252.565 405.636 252.65 405.676 252.74 405.7C252.853 405.717 252.967 405.717 253.08 405.7C253.209 405.7 253.337 405.68 253.46 405.64V405.65Z" fill="white"/>
<path d="M257.19 406C257.01 405.949 256.843 405.86 256.7 405.74C256.576 405.629 256.477 405.492 256.41 405.34C256.33 405.191 256.279 405.028 256.26 404.86C256.239 404.681 256.239 404.499 256.26 404.32C256.229 404.081 256.253 403.838 256.328 403.608C256.403 403.379 256.529 403.17 256.696 402.995C256.863 402.821 257.066 402.686 257.292 402.6C257.518 402.514 257.759 402.48 258 402.5C259.14 402.5 259.69 403.08 259.65 404.26C259.653 404.608 259.57 404.951 259.41 405.26C259.325 405.412 259.213 405.548 259.08 405.66C258.931 405.78 258.762 405.871 258.58 405.93C258.35 406 258.111 406.037 257.87 406.04C257.643 406.063 257.413 406.049 257.19 406V406ZM258.25 405.65C258.345 405.625 258.433 405.581 258.51 405.52C258.585 405.47 258.65 405.405 258.7 405.33C258.753 405.26 258.797 405.182 258.83 405.1C258.862 405.015 258.889 404.928 258.91 404.84C258.91 404.74 258.91 404.65 258.91 404.57C258.91 404.49 258.91 404.4 258.91 404.3V404C258.915 403.91 258.915 403.82 258.91 403.73C258.898 403.642 258.878 403.555 258.85 403.47C258.82 403.389 258.78 403.311 258.73 403.24C258.684 403.171 258.626 403.11 258.56 403.06C258.484 403.006 258.399 402.966 258.31 402.94C258.197 402.924 258.083 402.924 257.97 402.94C257.857 402.924 257.743 402.924 257.63 402.94C257.542 402.97 257.458 403.01 257.38 403.06C257.305 403.11 257.24 403.175 257.19 403.25C257.136 403.316 257.092 403.391 257.06 403.47C257.026 403.558 256.999 403.648 256.98 403.74C256.98 403.84 256.98 403.93 256.93 404.01C256.88 404.09 256.93 404.19 256.93 404.29V404.55C256.92 404.64 256.92 404.73 256.93 404.82C256.938 404.912 256.958 405.003 256.99 405.09C257.014 405.169 257.052 405.243 257.1 405.31C257.146 405.382 257.203 405.446 257.27 405.5C257.346 405.554 257.43 405.594 257.52 405.62C257.629 405.658 257.744 405.675 257.86 405.67C257.992 405.671 258.124 405.651 258.25 405.61V405.65Z" fill="white"/>
<path d="M262.001 405.93C261.822 405.876 261.656 405.788 261.511 405.67C261.381 405.562 261.279 405.425 261.211 405.27C261.136 405.118 261.082 404.957 261.051 404.79C261.035 404.61 261.035 404.43 261.051 404.25C261.023 404.011 261.049 403.769 261.127 403.541C261.205 403.314 261.333 403.107 261.502 402.936C261.671 402.765 261.877 402.634 262.104 402.553C262.33 402.473 262.572 402.444 262.811 402.47C263.951 402.47 264.511 403.05 264.491 404.23C264.49 404.411 264.474 404.592 264.441 404.77C264.408 404.939 264.347 405.101 264.261 405.25C264.183 405.404 264.074 405.54 263.941 405.65C263.795 405.773 263.625 405.865 263.441 405.92C263.215 405.992 262.978 406.025 262.741 406.02C262.491 406.027 262.242 405.997 262.001 405.93ZM263.001 405.58C263.094 405.551 263.182 405.507 263.261 405.45C263.334 405.397 263.398 405.333 263.451 405.26C263.499 405.188 263.539 405.11 263.571 405.03C263.604 404.945 263.631 404.858 263.651 404.77C263.651 404.67 263.651 404.58 263.651 404.5C263.651 404.42 263.651 404.33 263.651 404.23C263.657 404.14 263.657 404.05 263.651 403.96C263.661 403.867 263.661 403.773 263.651 403.68C263.637 403.592 263.617 403.505 263.591 403.42C263.559 403.343 263.519 403.269 263.471 403.2C263.422 403.13 263.361 403.069 263.291 403.02C263.215 402.966 263.131 402.926 263.041 402.9C262.929 402.883 262.814 402.883 262.701 402.9C262.588 402.884 262.474 402.884 262.361 402.9C262.272 402.926 262.187 402.966 262.111 403.02C262.038 403.073 261.974 403.137 261.921 403.21C261.874 403.279 261.833 403.353 261.801 403.43C261.767 403.518 261.741 403.608 261.721 403.7C261.721 403.79 261.721 403.89 261.721 403.97C261.716 404.063 261.716 404.157 261.721 404.25C261.711 404.336 261.711 404.424 261.721 404.51C261.712 404.6 261.712 404.69 261.721 404.78C261.728 404.869 261.749 404.957 261.781 405.04C261.811 405.121 261.851 405.199 261.901 405.27C261.948 405.348 262.01 405.416 262.084 405.469C262.158 405.523 262.242 405.56 262.331 405.58C262.441 405.613 262.556 405.63 262.671 405.63C262.783 405.629 262.894 405.612 263.001 405.58V405.58Z" fill="white"/>
<path d="M266.762 405.9C266.584 405.844 266.418 405.756 266.272 405.64C266.142 405.53 266.036 405.393 265.962 405.24C265.886 405.088 265.832 404.927 265.802 404.76C265.769 404.582 265.753 404.401 265.752 404.22C265.718 403.983 265.739 403.741 265.814 403.513C265.888 403.285 266.013 403.078 266.18 402.906C266.347 402.734 266.552 402.603 266.777 402.522C267.003 402.441 267.244 402.413 267.482 402.44C268.622 402.44 269.192 403.02 269.192 404.2C269.196 404.378 269.18 404.556 269.142 404.73C269.113 404.9 269.059 405.065 268.982 405.22C268.901 405.372 268.792 405.508 268.662 405.62C268.518 405.742 268.351 405.833 268.172 405.89C267.944 405.956 267.709 405.99 267.472 405.99C267.232 405.994 266.993 405.963 266.762 405.9V405.9ZM267.812 405.55C267.903 405.517 267.99 405.473 268.072 405.42C268.144 405.369 268.205 405.305 268.252 405.23C268.3 405.158 268.34 405.081 268.372 405C268.407 404.913 268.43 404.823 268.442 404.73C268.442 404.64 268.442 404.55 268.442 404.47C268.442 404.39 268.442 404.3 268.442 404.2C268.442 404.1 268.442 404.01 268.442 403.93C268.442 403.85 268.442 403.75 268.442 403.65C268.424 403.562 268.401 403.475 268.372 403.39C268.34 403.313 268.299 403.239 268.252 403.17C268.202 403.1 268.141 403.04 268.072 402.99C267.996 402.936 267.911 402.896 267.822 402.87C267.709 402.854 267.595 402.854 267.482 402.87C267.369 402.854 267.255 402.854 267.142 402.87C267.052 402.896 266.968 402.936 266.892 402.99C266.82 403.041 266.759 403.105 266.712 403.18C266.658 403.246 266.614 403.321 266.582 403.4C266.582 403.48 266.532 403.57 266.512 403.67C266.507 403.76 266.507 403.85 266.512 403.94C266.512 404.02 266.512 404.12 266.512 404.21C266.512 404.3 266.512 404.4 266.512 404.48C266.512 404.56 266.512 404.65 266.512 404.75C266.528 404.838 266.551 404.925 266.582 405.01C266.612 405.092 266.652 405.169 266.702 405.24C266.749 405.315 266.81 405.379 266.882 405.43C266.96 405.486 267.049 405.526 267.142 405.55C267.252 405.583 267.367 405.6 267.482 405.6C267.594 405.599 267.705 405.582 267.812 405.55V405.55Z" fill="white"/>
<path d="M277.002 405.83C276.815 405.78 276.641 405.692 276.492 405.57C276.362 405.457 276.253 405.322 276.172 405.17C276.091 405.018 276.031 404.857 275.992 404.69C275.95 404.513 275.93 404.332 275.932 404.15C275.932 402.97 276.462 402.38 277.602 402.38C277.839 402.351 278.08 402.376 278.306 402.454C278.531 402.532 278.737 402.66 278.906 402.828C279.076 402.996 279.205 403.201 279.284 403.427C279.363 403.652 279.389 403.893 279.362 404.13C279.382 404.309 279.382 404.491 279.362 404.67C279.34 404.837 279.289 405 279.212 405.15C279.144 405.305 279.042 405.442 278.912 405.55C278.772 405.671 278.608 405.763 278.432 405.82C277.974 405.946 277.49 405.946 277.032 405.82L277.002 405.83ZM278.002 405.48C278.177 405.424 278.328 405.312 278.432 405.16C278.478 405.088 278.515 405.011 278.542 404.93C278.573 404.846 278.594 404.759 278.602 404.67C278.602 404.57 278.602 404.48 278.602 404.4V404.14C278.602 404.04 278.602 403.94 278.602 403.86C278.602 403.78 278.602 403.69 278.602 403.59C278.602 403.49 278.552 403.41 278.522 403.33L278.392 403.1C278.336 403.032 278.272 402.972 278.202 402.92C278.126 402.866 278.041 402.826 277.952 402.8C277.839 402.79 277.725 402.79 277.612 402.8C277.497 402.8 277.382 402.816 277.272 402.85C277.182 402.876 277.098 402.916 277.022 402.97C276.958 403.023 276.901 403.083 276.852 403.15C276.804 403.222 276.764 403.299 276.732 403.38C276.732 403.45 276.732 403.54 276.672 403.64C276.663 403.73 276.663 403.82 276.672 403.91V404.19C276.666 404.277 276.666 404.363 276.672 404.45C276.662 404.54 276.662 404.63 276.672 404.72C276.688 404.812 276.711 404.902 276.742 404.99C276.781 405.065 276.825 405.139 276.872 405.21C276.922 405.285 276.987 405.35 277.062 405.4C277.14 405.455 277.229 405.496 277.322 405.52C277.434 405.542 277.549 405.542 277.662 405.52C277.776 405.523 277.891 405.509 278.002 405.48Z" fill="white"/>
<path d="M281.72 405.8C281.535 405.746 281.362 405.658 281.21 405.54C281.077 405.43 280.968 405.294 280.89 405.14C280.805 404.989 280.742 404.828 280.7 404.66C280.659 404.483 280.636 404.302 280.63 404.12C280.58 402.94 281.13 402.35 282.27 402.35C282.508 402.322 282.75 402.348 282.977 402.425C283.204 402.503 283.411 402.63 283.583 402.798C283.754 402.966 283.886 403.17 283.969 403.395C284.051 403.62 284.083 403.861 284.06 404.1C284.075 404.28 284.075 404.46 284.06 404.64C284.037 404.806 283.99 404.968 283.92 405.12C283.846 405.271 283.744 405.407 283.62 405.52C283.48 405.642 283.317 405.733 283.14 405.79C282.914 405.862 282.677 405.896 282.44 405.89C282.197 405.895 281.955 405.864 281.72 405.8V405.8ZM282.72 405.45C282.81 405.421 282.895 405.377 282.97 405.32C283.037 405.266 283.094 405.202 283.14 405.13C283.185 405.057 283.222 404.98 283.25 404.9C283.281 404.816 283.301 404.729 283.31 404.64C283.31 404.54 283.31 404.45 283.31 404.37V404.1C283.31 404 283.31 403.91 283.31 403.83C283.303 403.738 283.286 403.648 283.26 403.56C283.226 403.383 283.155 403.216 283.05 403.07C282.997 403 282.933 402.939 282.86 402.89C282.78 402.836 282.693 402.796 282.6 402.77C282.487 402.758 282.373 402.758 282.26 402.77C282.151 402.754 282.039 402.754 281.93 402.77C281.841 402.796 281.756 402.836 281.68 402.89C281.616 402.943 281.559 403.003 281.51 403.07C281.461 403.14 281.424 403.218 281.4 403.3C281.367 403.383 281.347 403.471 281.34 403.56C281.34 403.66 281.34 403.75 281.34 403.83C281.33 403.923 281.33 404.017 281.34 404.11C281.335 404.197 281.335 404.283 281.34 404.37C281.34 404.45 281.34 404.54 281.34 404.64C281.358 404.729 281.385 404.816 281.42 404.9C281.457 404.982 281.504 405.059 281.56 405.13C281.607 405.205 281.668 405.269 281.74 405.32C281.82 405.374 281.907 405.414 282 405.44C282.114 405.473 282.232 405.489 282.35 405.49C282.485 405.499 282.62 405.486 282.75 405.45H282.72Z" fill="white"/>
<path d="M286.492 405.77C286.307 405.716 286.134 405.628 285.982 405.51C285.848 405.398 285.737 405.262 285.652 405.11C285.564 404.959 285.497 404.798 285.452 404.63C285.408 404.453 285.381 404.272 285.372 404.09C285.312 402.91 285.852 402.32 286.982 402.32C287.222 402.291 287.465 402.316 287.694 402.392C287.923 402.469 288.133 402.596 288.307 402.763C288.481 402.931 288.616 403.135 288.701 403.361C288.787 403.587 288.821 403.829 288.802 404.07C288.817 404.246 288.817 404.424 288.802 404.6C288.783 404.769 288.739 404.934 288.672 405.09C288.598 405.239 288.5 405.374 288.382 405.49C288.242 405.611 288.078 405.703 287.902 405.76C287.678 405.827 287.445 405.86 287.212 405.86C286.969 405.864 286.726 405.834 286.492 405.77V405.77ZM287.492 405.42C287.58 405.387 287.664 405.343 287.742 405.29C287.811 405.239 287.869 405.174 287.912 405.1C287.956 405.027 287.993 404.95 288.022 404.87C288.027 404.783 288.027 404.696 288.022 404.61C288.022 404.51 288.022 404.42 288.022 404.34C288.026 404.25 288.026 404.16 288.022 404.07V403.8C288.01 403.709 287.993 403.619 287.972 403.53C287.956 403.439 287.925 403.351 287.882 403.27C287.846 403.189 287.802 403.112 287.752 403.04C287.696 402.972 287.632 402.912 287.562 402.86C287.481 402.808 287.394 402.767 287.302 402.74C287.189 402.729 287.075 402.729 286.962 402.74C286.846 402.74 286.732 402.756 286.622 402.79C286.535 402.816 286.454 402.856 286.382 402.91C286.315 402.96 286.258 403.021 286.212 403.09C286.165 403.162 286.128 403.239 286.102 403.32C286.094 403.406 286.094 403.493 286.102 403.58C286.092 403.67 286.092 403.76 286.102 403.85V404.13V404.39C286.11 404.481 286.127 404.571 286.152 404.66C286.169 404.749 286.196 404.836 286.232 404.92C286.269 405.002 286.316 405.079 286.372 405.15C286.422 405.225 286.487 405.29 286.562 405.34C286.641 405.394 286.729 405.434 286.822 405.46C286.932 405.493 287.047 405.509 287.162 405.51C287.282 405.498 287.4 405.468 287.512 405.42H287.492Z" fill="white"/>
<path d="M291.261 405.73C291.077 405.679 290.904 405.595 290.751 405.48C290.614 405.368 290.499 405.233 290.411 405.08C290.32 404.93 290.25 404.768 290.201 404.6C290.158 404.423 290.132 404.242 290.121 404.06C290.031 402.88 290.561 402.29 291.701 402.29C291.942 402.263 292.185 402.289 292.414 402.367C292.643 402.444 292.853 402.57 293.028 402.737C293.203 402.904 293.34 403.107 293.429 403.332C293.517 403.557 293.556 403.798 293.541 404.04C293.561 404.216 293.561 404.394 293.541 404.57C293.523 404.739 293.479 404.904 293.411 405.06C293.345 405.21 293.25 405.346 293.131 405.46C292.997 405.582 292.836 405.671 292.661 405.72C292.439 405.795 292.206 405.832 291.971 405.83C291.731 405.835 291.491 405.802 291.261 405.73V405.73ZM292.261 405.39C292.349 405.357 292.433 405.313 292.511 405.26C292.578 405.206 292.635 405.142 292.681 405.07C292.721 404.996 292.754 404.919 292.781 404.84C292.788 404.75 292.788 404.66 292.781 404.57C292.786 404.483 292.786 404.396 292.781 404.31C292.786 404.22 292.786 404.13 292.781 404.04V403.77C292.771 403.678 292.751 403.588 292.721 403.5C292.705 403.409 292.675 403.321 292.631 403.24C292.595 403.157 292.548 403.08 292.491 403.01C292.438 402.94 292.374 402.879 292.301 402.83C292.222 402.776 292.134 402.736 292.041 402.71C291.928 402.694 291.814 402.694 291.701 402.71C291.586 402.71 291.471 402.726 291.361 402.76C291.276 402.788 291.195 402.828 291.121 402.88C290.994 402.989 290.901 403.131 290.851 403.29C290.827 403.375 290.81 403.462 290.801 403.55C290.801 403.65 290.801 403.74 290.801 403.82C290.801 403.9 290.801 404 290.801 404.1C290.796 404.186 290.796 404.273 290.801 404.36C290.801 404.44 290.801 404.53 290.861 404.63C290.879 404.72 290.909 404.808 290.951 404.89C290.987 404.973 291.034 405.05 291.091 405.12C291.141 405.195 291.206 405.26 291.281 405.31C291.361 405.364 291.449 405.404 291.541 405.43C291.657 405.45 291.775 405.45 291.891 405.43C292.019 405.438 292.148 405.424 292.271 405.39H292.261Z" fill="white"/>
<path d="M301.411 405.67C301.221 405.614 301.041 405.526 300.881 405.41C300.744 405.296 300.626 405.161 300.531 405.01C300.433 404.862 300.359 404.7 300.311 404.53C300.259 404.354 300.226 404.173 300.211 403.99C300.091 402.82 300.591 402.23 301.731 402.22C301.974 402.196 302.219 402.224 302.45 402.301C302.681 402.378 302.894 402.504 303.073 402.669C303.252 402.834 303.395 403.036 303.491 403.26C303.587 403.484 303.635 403.726 303.631 403.97C303.651 404.15 303.651 404.331 303.631 404.51C303.618 404.675 303.581 404.836 303.521 404.99C303.464 405.141 303.375 405.277 303.261 405.39C303.124 405.512 302.964 405.604 302.791 405.66C302.567 405.728 302.335 405.762 302.101 405.76C301.868 405.762 301.636 405.732 301.411 405.67V405.67ZM302.411 405.32C302.497 405.289 302.578 405.245 302.651 405.19C302.717 405.139 302.771 405.074 302.811 405C302.849 404.927 302.88 404.85 302.901 404.77C302.924 404.685 302.941 404.598 302.951 404.51V404.24C302.955 404.153 302.955 404.067 302.951 403.98C302.951 403.88 302.951 403.79 302.951 403.7C302.951 403.61 302.951 403.53 302.881 403.43C302.855 403.341 302.822 403.254 302.781 403.17C302.741 403.092 302.694 403.019 302.641 402.95C302.584 402.88 302.517 402.819 302.441 402.77C302.357 402.718 302.266 402.678 302.171 402.65C302.058 402.634 301.944 402.634 301.831 402.65C301.721 402.634 301.61 402.634 301.501 402.65C301.413 402.673 301.332 402.714 301.261 402.77C301.198 402.824 301.143 402.888 301.101 402.96C301.057 403.028 301.024 403.102 301.001 403.18C300.994 403.267 300.994 403.354 301.001 403.44C300.996 403.53 300.996 403.62 301.001 403.71C301.001 403.8 301.001 403.89 301.001 403.99V404.25C301.019 404.341 301.043 404.431 301.071 404.52C301.092 404.61 301.122 404.697 301.161 404.78C301.201 404.862 301.252 404.94 301.311 405.01C301.365 405.086 301.432 405.15 301.511 405.2C301.593 405.256 301.684 405.296 301.781 405.32C301.891 405.353 302.006 405.37 302.121 405.37C302.219 405.366 302.317 405.349 302.411 405.32V405.32Z" fill="white"/>
<path d="M306.161 405.64C305.976 405.58 305.8 405.492 305.641 405.38C305.498 405.269 305.377 405.133 305.281 404.98C305.184 404.83 305.107 404.669 305.051 404.5C304.996 404.324 304.959 404.143 304.941 403.96C304.801 402.79 305.301 402.2 306.431 402.19C306.675 402.166 306.922 402.194 307.154 402.271C307.387 402.348 307.601 402.473 307.783 402.638C307.965 402.803 308.11 403.004 308.21 403.228C308.309 403.452 308.361 403.695 308.361 403.94C308.376 404.12 308.376 404.3 308.361 404.48C308.352 404.644 308.318 404.806 308.261 404.96C308.202 405.109 308.114 405.245 308.001 405.36C307.87 405.482 307.713 405.571 307.541 405.62C307.319 405.697 307.086 405.734 306.851 405.73C306.618 405.731 306.386 405.701 306.161 405.64V405.64ZM307.161 405.29C307.247 405.259 307.328 405.215 307.401 405.16C307.464 405.106 307.518 405.041 307.561 404.97C307.642 404.819 307.683 404.651 307.681 404.48C307.691 404.39 307.691 404.3 307.681 404.21C307.686 404.123 307.686 404.036 307.681 403.95C307.67 403.856 307.653 403.762 307.631 403.67C307.619 403.577 307.596 403.486 307.561 403.4C307.535 403.31 307.502 403.223 307.461 403.14C307.42 403.061 307.37 402.987 307.311 402.92C307.255 402.847 307.187 402.782 307.111 402.73C307.024 402.686 306.934 402.649 306.841 402.62C306.728 402.604 306.614 402.604 306.501 402.62C306.392 402.604 306.28 402.604 306.171 402.62C306.085 402.648 306.004 402.688 305.931 402.74C305.87 402.79 305.82 402.851 305.781 402.92C305.735 402.991 305.701 403.068 305.681 403.15C305.675 403.236 305.675 403.323 305.681 403.41C305.676 403.5 305.676 403.59 305.681 403.68V403.96C305.675 404.046 305.675 404.133 305.681 404.22C305.696 404.312 305.719 404.402 305.751 404.49C305.775 404.58 305.808 404.667 305.851 404.75C305.892 404.832 305.942 404.91 306.001 404.98C306.055 405.056 306.123 405.12 306.201 405.17C306.283 405.225 306.375 405.266 306.471 405.29C306.584 405.306 306.698 405.306 306.811 405.29C306.927 405.302 307.045 405.302 307.161 405.29V405.29Z" fill="white"/>
<path d="M310.921 405.6C310.729 405.548 310.549 405.46 310.391 405.34C310.244 405.247 310.113 405.132 310.001 405C309.904 404.85 309.827 404.689 309.771 404.52C309.717 404.343 309.677 404.163 309.651 403.98C309.491 402.81 309.981 402.22 311.111 402.21C311.359 402.182 311.611 402.206 311.849 402.281C312.088 402.356 312.308 402.479 312.496 402.644C312.685 402.809 312.836 403.011 312.942 403.237C313.048 403.464 313.105 403.71 313.111 403.96C313.12 404.136 313.12 404.313 313.111 404.49C313.103 404.657 313.069 404.823 313.011 404.98C312.955 405.129 312.87 405.265 312.761 405.38C312.631 405.504 312.473 405.593 312.301 405.64C312.082 405.716 311.852 405.753 311.621 405.75C311.381 405.737 311.145 405.687 310.921 405.6V405.6ZM311.921 405.25C312.006 405.222 312.087 405.182 312.161 405.13C312.221 405.076 312.272 405.011 312.311 404.94C312.392 404.79 312.433 404.621 312.431 404.45V404.18V403.92C312.431 403.82 312.431 403.72 312.381 403.64C312.36 403.548 312.334 403.458 312.301 403.37C312.275 403.28 312.242 403.193 312.201 403.11C312.156 403.03 312.103 402.957 312.041 402.89C311.984 402.817 311.917 402.752 311.841 402.7C311.754 402.656 311.664 402.619 311.571 402.59C311.458 402.574 311.343 402.574 311.231 402.59C311.121 402.573 311.01 402.573 310.901 402.59C310.814 402.616 310.733 402.656 310.661 402.71C310.6 402.76 310.549 402.821 310.511 402.89C310.472 402.963 310.442 403.04 310.421 403.12C310.409 403.206 310.409 403.294 310.421 403.38C310.411 403.47 310.411 403.56 310.421 403.65C310.411 403.743 310.411 403.837 310.421 403.93C310.421 404.02 310.421 404.11 310.421 404.19C310.421 404.27 310.421 404.36 310.491 404.46C310.518 404.55 310.554 404.638 310.601 404.72C310.641 404.802 310.692 404.88 310.751 404.95C310.808 405.026 310.879 405.09 310.961 405.14C311.043 405.195 311.134 405.236 311.231 405.26C311.343 405.281 311.458 405.281 311.571 405.26C311.684 405.278 311.799 405.275 311.911 405.25H311.921Z" fill="white"/>
<path d="M315.67 405.57C315.478 405.518 315.298 405.43 315.14 405.31C314.992 405.205 314.867 405.073 314.77 404.92C314.667 404.771 314.583 404.61 314.52 404.44C314.467 404.263 314.427 404.082 314.4 403.9C314.22 402.73 314.7 402.14 315.83 402.13C316.078 402.105 316.328 402.131 316.566 402.207C316.803 402.283 317.022 402.407 317.21 402.571C317.397 402.735 317.549 402.936 317.656 403.161C317.762 403.386 317.822 403.631 317.83 403.88C317.844 404.056 317.844 404.233 317.83 404.41C317.83 404.577 317.8 404.743 317.74 404.9C317.69 405.051 317.604 405.188 317.49 405.3C317.364 405.422 317.209 405.511 317.04 405.56C316.587 405.7 316.103 405.7 315.65 405.56L315.67 405.57ZM316.67 405.22C316.757 405.196 316.839 405.156 316.91 405.1C316.971 405.046 317.022 404.981 317.06 404.91C317.099 404.838 317.126 404.76 317.14 404.68C317.151 404.59 317.151 404.5 317.14 404.41C317.145 404.323 317.145 404.236 317.14 404.15C317.149 404.06 317.149 403.97 317.14 403.88C317.14 403.78 317.14 403.69 317.09 403.61C317.04 403.53 317.04 403.44 317.01 403.34C316.981 403.25 316.945 403.163 316.9 403.08C316.856 403 316.802 402.926 316.74 402.86C316.683 402.784 316.611 402.719 316.53 402.67C316.445 402.622 316.354 402.585 316.26 402.56C316.147 402.544 316.033 402.544 315.92 402.56C315.811 402.544 315.7 402.544 315.59 402.56C315.507 402.585 315.429 402.626 315.36 402.68C315.3 402.73 315.249 402.791 315.21 402.86C315.172 402.933 315.141 403.01 315.12 403.09C315.12 403.17 315.12 403.25 315.12 403.35C315.115 403.44 315.115 403.53 315.12 403.62V403.9C315.12 403.99 315.12 404.08 315.12 404.16C315.12 404.24 315.17 404.33 315.2 404.43C315.229 404.52 315.266 404.607 315.31 404.69C315.353 404.771 315.403 404.848 315.46 404.92C315.522 404.991 315.593 405.055 315.67 405.11C315.754 405.162 315.845 405.202 315.94 405.23C316.056 405.245 316.174 405.245 316.29 405.23C316.409 405.253 316.532 405.25 316.65 405.22H316.67Z" fill="white"/>
<path d="M312.241 414.29C312.561 416.62 310.241 418.55 307.031 418.57C303.821 418.59 301.031 416.7 300.801 414.38C300.571 412.06 302.911 410.23 306.031 410.21C309.151 410.19 311.921 412 312.241 414.29Z" fill="white" stroke="#263238" stroke-linecap="round" stroke-linejoin="round"/>
<path d="M320 414.24C320.38 416.56 318.1 418.49 314.9 418.51C311.7 418.53 308.9 416.65 308.57 414.32C308.24 411.99 310.57 410.18 313.69 410.16C316.81 410.14 319.63 412 320 414.24Z" fill="white" stroke="#263238" stroke-linecap="round" stroke-linejoin="round"/>
<path d="M153.291 453.07C153.291 453.07 175.651 406.19 179.091 397.16C182.531 388.13 230.701 365.33 233.281 361C235.861 356.67 239.281 343.37 241.891 337.78C244.501 332.19 242.321 330.03 244.041 325.3C245.761 320.57 248.771 314.98 244.471 314.98C240.171 314.98 234.581 319.71 232.421 327.45C230.261 335.19 221.671 341.65 221.671 341.65L222.101 336.49C222.531 331.32 227.691 315.41 229.841 311.97C231.991 308.53 244.901 294.77 246.621 294.34C248.341 293.91 252.211 297.78 256.081 297.78C259.951 297.78 260.811 294.78 258.661 293.05C256.511 291.32 254.791 285.73 249.661 282.29C244.531 278.85 238.911 282.29 238.911 282.29C237.476 279.902 235.897 277.605 234.181 275.41C232.021 272.83 227.721 268.53 222.131 267.24C220.494 266.866 218.794 266.865 217.156 267.238C215.519 267.61 213.986 268.345 212.671 269.39C210.691 268.978 208.687 268.691 206.671 268.53C202.371 268.1 199.361 270.68 195.061 277.53C190.761 284.38 183.871 297.75 183.871 297.75C183.871 297.75 185.591 285.27 185.591 280.11C185.591 274.95 186.021 269.36 183.871 267.21C181.721 265.06 179.571 267.64 178.711 275.38C177.851 283.12 167.961 310.22 166.711 317.53C165.461 324.84 151.661 365.27 144.341 375.6C137.021 385.93 97.4609 431.08 97.4609 431.08L153.291 453.07ZM215.221 300.82C215.221 300.82 221.221 283.61 222.961 283.61C224.701 283.61 231.131 288.34 231.131 288.34L215.221 300.82Z" fill="white" stroke="#263238" stroke-linecap="round" stroke-linejoin="round"/>
<path d="M163.161 336.22C163.161 336.22 170.491 313.29 171.711 307.39C172.581 303.23 175.661 308.08 175.661 308.08C175.661 308.08 181.661 303.79 181.661 307.39C181.729 309.677 182.517 311.885 183.911 313.7C183.911 313.7 182.561 307.39 188.911 305.59C195.261 303.79 197.911 306.49 196.571 313.7C195.231 320.91 197.471 318.2 198.821 316.4C200.171 314.6 198.371 310.09 206.481 306.94C214.591 303.79 219.101 306.94 217.741 313.7C216.381 320.46 214.141 326.31 214.141 336.22C214.141 346.13 215.941 355.14 217.741 355.14C219.541 355.14 229.461 344.78 231.261 351.54C233.061 358.3 229.461 358.3 220.001 366.4C210.541 374.5 185.761 381.27 181.711 389.4C177.661 397.53 174.951 402.46 172.251 402.91C169.551 403.36 165.041 387.15 151.971 388.91C138.901 390.67 125.391 403.78 128.551 398.37C131.711 392.96 143.411 384.37 150.171 369.09C156.931 353.81 163.161 336.22 163.161 336.22Z" fill="#263238"/>
<path opacity="0.4" d="M163.161 336.22C163.161 336.22 170.491 313.29 171.711 307.39C172.581 303.23 175.661 308.08 175.661 308.08C175.661 308.08 181.661 303.79 181.661 307.39C181.729 309.677 182.517 311.885 183.911 313.7C183.911 313.7 182.561 307.39 188.911 305.59C195.261 303.79 197.911 306.49 196.571 313.7C195.231 320.91 197.471 318.2 198.821 316.4C200.171 314.6 198.371 310.09 206.481 306.94C214.591 303.79 219.101 306.94 217.741 313.7C216.381 320.46 214.141 326.31 214.141 336.22C214.141 346.13 215.941 355.14 217.741 355.14C219.541 355.14 229.461 344.78 231.261 351.54C233.061 358.3 229.461 358.3 220.001 366.4C210.541 374.5 185.761 381.27 181.711 389.4C177.661 397.53 174.951 402.46 172.251 402.91C169.551 403.36 165.041 387.15 151.971 388.91C138.901 390.67 125.391 403.78 128.551 398.37C131.711 392.96 143.411 384.37 150.171 369.09C156.931 353.81 163.161 336.22 163.161 336.22Z" fill="white"/>
<path d="M212.641 269.42C212.641 269.42 200.641 290.07 198.021 294.37C195.401 298.67 193.291 302.54 190.271 304.26C187.251 305.98 185.111 309.85 185.971 311.14" fill="white"/>
<path d="M212.641 269.42C212.641 269.42 200.641 290.07 198.021 294.37C195.401 298.67 193.291 302.54 190.271 304.26C187.251 305.98 185.111 309.85 185.971 311.14" stroke="#263238" stroke-linecap="round" stroke-linejoin="round"/>
<path d="M183.82 297.81C182.491 300.245 180.744 302.428 178.66 304.26C175.22 307.26 171.35 309.85 170.49 313.26C169.901 315.44 168.881 317.481 167.49 319.26" fill="white"/>
<path d="M183.82 297.81C182.491 300.245 180.744 302.428 178.66 304.26C175.22 307.26 171.35 309.85 170.49 313.26C169.901 315.44 168.881 317.481 167.49 319.26" stroke="#263238" stroke-linecap="round" stroke-linejoin="round"/>
<path d="M215.221 300.82C215.221 300.82 206.621 306.41 204.471 308.13C202.321 309.85 201.471 313.72 201.471 313.72" fill="white"/>
<path d="M215.221 300.82C215.221 300.82 206.621 306.41 204.471 308.13C202.321 309.85 201.471 313.72 201.471 313.72" stroke="#263238" stroke-linecap="round" stroke-linejoin="round"/>
<path d="M238.881 282.32L231.131 288.34" stroke="#263238" stroke-linecap="round" stroke-linejoin="round"/>
<path d="M448.062 426.11C448.062 426.11 408.922 387.84 405.912 380.11C402.902 372.38 403.762 370.65 401.182 365.11C398.602 359.57 390.862 350 390.432 343.11C390.002 336.22 386.562 319.88 386.562 314.29C386.562 308.7 385.272 300.53 383.562 299.24C381.852 297.95 372.372 295.79 372.372 295.79C372.372 295.79 367.212 279.45 363.372 278.59C359.532 277.73 351.722 282 351.722 282C351.722 282 350.002 279 347.852 274.26C345.702 269.52 341.852 269.53 337.102 271.26C332.352 272.99 322.902 276.85 322.902 276.85C322.902 276.85 312.152 268.68 308.712 273.85C305.272 279.02 300.971 288.47 300.111 291.91C299.251 295.35 305.201 295.23 306.491 294.37C307.781 293.51 312.622 289.95 312.622 289.95C312.622 289.95 322.042 297.07 323.762 300.95C325.482 304.83 328.922 322.88 329.352 326.32C329.782 329.76 328.062 340.51 328.062 340.51C328.062 340.51 319.892 325.89 316.062 321.59C312.232 317.29 306.601 314.71 302.301 314.71C298.001 314.71 294.992 319.44 298.432 321.59C301.872 323.74 305.742 326.32 306.602 329.33C307.462 332.34 316.062 347.83 316.922 353.42C317.782 359.01 323.802 370.19 329.392 373.63C334.982 377.07 355.632 381.37 359.502 385.25C363.372 389.13 390.902 443.74 390.902 443.74L448.062 426.11ZM330.642 285H337.532L344.842 299.2L330.642 285Z" fill="white" stroke="#263238" stroke-linecap="round" stroke-linejoin="round"/>
<path d="M385.25 320.45C385.25 320.45 380.25 306.45 374.44 309.19C368.63 311.93 367.68 313.25 367.68 313.25C367.68 313.25 364.52 308.25 359.12 310.09C353.72 311.93 351.91 308.29 351.91 308.29C351.91 308.29 344.7 303.79 340.2 307.39C335.7 310.99 339.3 320.9 341.1 329.01C342.9 337.12 338.85 352.89 337.95 354.24C337.05 355.59 324.88 350.19 323.53 355.14C322.18 360.09 327.58 370.91 338.4 374.51C349.22 378.11 357.32 379.92 361.4 383.97C365.48 388.02 375.82 417.31 384.83 419.56C393.84 421.81 403.75 408.75 413.21 409.65C422.67 410.55 434.83 417.31 429.88 411.45C424.93 405.59 404.2 384.45 402.88 376.77C401.56 369.09 396.57 363.7 394.32 360.1C392.07 356.5 388 334.87 386.6 329C385.867 326.202 385.415 323.338 385.25 320.45V320.45Z" fill="#263238"/>
<path opacity="0.4" d="M385.25 320.45C385.25 320.45 380.25 306.45 374.44 309.19C368.63 311.93 367.68 313.25 367.68 313.25C367.68 313.25 364.52 308.25 359.12 310.09C353.72 311.93 351.91 308.29 351.91 308.29C351.91 308.29 344.7 303.79 340.2 307.39C335.7 310.99 339.3 320.9 341.1 329.01C342.9 337.12 338.85 352.89 337.95 354.24C337.05 355.59 324.88 350.19 323.53 355.14C322.18 360.09 327.58 370.91 338.4 374.51C349.22 378.11 357.32 379.92 361.4 383.97C365.48 388.02 375.82 417.31 384.83 419.56C393.84 421.81 403.75 408.75 413.21 409.65C422.67 410.55 434.83 417.31 429.88 411.45C424.93 405.59 404.2 384.45 402.88 376.77C401.56 369.09 396.57 363.7 394.32 360.1C392.07 356.5 388 334.87 386.6 329C385.867 326.202 385.415 323.338 385.25 320.45V320.45Z" fill="white"/>
<path d="M351.721 282L357.721 293.18C357.721 293.18 360.171 299.05 362.651 301.52C365.131 303.99 367.291 305.85 368.221 308.95C369.151 312.05 369.451 313.59 369.451 313.59" fill="white"/>
<path d="M351.721 282L357.721 293.18C357.721 293.18 360.171 299.05 362.651 301.52C365.131 303.99 367.291 305.85 368.221 308.95C369.151 312.05 369.451 313.59 369.451 313.59" stroke="#263238" stroke-linecap="round" stroke-linejoin="round"/>
<path d="M372.361 295.79L378.391 308.27" stroke="#263238" stroke-linecap="round" stroke-linejoin="round"/>
<path d="M322.9 276.87L330.64 285.04" stroke="#263238" stroke-linecap="round" stroke-linejoin="round"/>
<path d="M380 311.14C380.132 313.738 380.443 316.324 380.93 318.88Z" fill="white"/>
<path d="M380 311.14C380.132 313.738 380.443 316.324 380.93 318.88" stroke="#263238" stroke-linecap="round" stroke-linejoin="round"/>
<path d="M349.061 304C349.061 304 352.771 306.78 353.391 310.49Z" fill="white"/>
<path d="M349.061 304C349.061 304 352.771 306.78 353.391 310.49" stroke="#263238" stroke-linecap="round" stroke-linejoin="round"/>
<path d="M312.621 290C312.621 290 309.221 288.64 309.221 285.92Z" fill="white"/>
<path d="M312.621 290C312.621 290 309.221 288.64 309.221 285.92" stroke="#263238" stroke-linecap="round" stroke-linejoin="round"/>
<path d="M337.53 285C337.53 285 335.07 283.11 335.07 280.73Z" fill="white"/>
<path d="M337.53 285C337.53 285 335.07 283.11 335.07 280.73" stroke="#263238" stroke-linecap="round" stroke-linejoin="round"/>
</svg>
